<svg width="768" height="361" viewBox="0 0 768 361" fill="none" xmlns="http://www.w3.org/2000/svg">
<g clip-path="url(#clip0_35_675)">
<g filter="url(#filter0_bd_35_675)">
<path d="M176.727 -37H-25V175.103C-25 175.103 33.4995 199.621 48.4606 175.103C57.605 160.118 45.3149 156.635 48.4606 130.131C51.6063 103.628 57.5337 109.017 104.553 130.131C151.573 151.246 99.7519 79.6935 97.0913 54.1039C93.4657 19.2329 160.455 66.0255 176.727 46.5012C197.591 21.4679 176.727 -37 176.727 -37Z" fill="url(#paint0_linear_35_675)" shape-rendering="crispEdges"/>
</g>
<g filter="url(#filter1_bd_35_675)">
<path d="M593.857 384.846L804.709 361.14L791.265 159.272C791.265 159.272 716.905 135.231 694.274 165.731C675.007 191.696 716.046 220.424 699.777 248.368C677.138 287.255 614.667 231.009 585.916 265.615C556.106 301.495 593.857 384.846 593.857 384.846Z" fill="url(#paint1_linear_35_675)" shape-rendering="crispEdges"/>
</g>
</g>
<defs>
<filter id="filter0_bd_35_675" x="-65" y="-77" width="291" height="303" filterUnits="userSpaceOnUse" color-interpolation-filters="sRGB">
<feFlood flood-opacity="0" result="BackgroundImageFix"/>
<feGaussianBlur in="BackgroundImageFix" stdDeviation="20"/>
<feComposite in2="SourceAlpha" operator="in" result="effect1_backgroundBlur_35_675"/>
<feColorMatrix in="SourceAlpha" type="matrix" values="0 0 0 0 0 0 0 0 0 0 0 0 0 0 0 0 0 0 127 0" result="hardAlpha"/>
<feOffset dy="9"/>
<feGaussianBlur stdDeviation="12"/>
<feComposite in2="hardAlpha" operator="out"/>
<feColorMatrix type="matrix" values="0 0 0 0 0 0 0 0 0 0 0 0 0 0 0 0 0 0 0.2 0"/>
<feBlend mode="normal" in2="effect1_backgroundBlur_35_675" result="effect2_dropShadow_35_675"/>
<feBlend mode="normal" in="SourceGraphic" in2="effect2_dropShadow_35_675" result="shape"/>
</filter>
<filter id="filter1_bd_35_675" x="494.453" y="70.2715" width="390.256" height="394.574" filterUnits="userSpaceOnUse" color-interpolation-filters="sRGB">
<feFlood flood-opacity="0" result="BackgroundImageFix"/>
<feGaussianBlur in="BackgroundImageFix" stdDeviation="40"/>
<feComposite in2="SourceAlpha" operator="in" result="effect1_backgroundBlur_35_675"/>
<feColorMatrix in="SourceAlpha" type="matrix" values="0 0 0 0 0 0 0 0 0 0 0 0 0 0 0 0 0 0 127 0" result="hardAlpha"/>
<feOffset dy="9"/>
<feGaussianBlur stdDeviation="12"/>
<feComposite in2="hardAlpha" operator="out"/>
<feColorMatrix type="matrix" values="0 0 0 0 0 0 0 0 0 0 0 0 0 0 0 0 0 0 0.2 0"/>
<feBlend mode="normal" in2="effect1_backgroundBlur_35_675" result="effect2_dropShadow_35_675"/>
<feBlend mode="normal" in="SourceGraphic" in2="effect2_dropShadow_35_675" result="shape"/>
</filter>
<linearGradient id="paint0_linear_35_675" x1="22.1325" y1="-37" x2="80.7412" y2="185.937" gradientUnits="userSpaceOnUse">
<stop stop-color="#D9D9D9" stop-opacity="0.4"/>
<stop offset="1" stop-color="white" stop-opacity="0.1"/>
</linearGradient>
<linearGradient id="paint1_linear_35_675" x1="750.135" y1="332.987" x2="626.338" y2="196.916" gradientUnits="userSpaceOnUse">
<stop stop-color="white" stop-opacity="0.4"/>
<stop offset="1" stop-color="white" stop-opacity="0.1"/>
</linearGradient>
<clipPath id="clip0_35_675">
<rect width="768" height="361" fill="white"/>
</clipPath>
</defs>
</svg>
