<svg width="128" height="43" viewBox="0 0 128 43" fill="none" xmlns="http://www.w3.org/2000/svg">
<path d="M3.392 33.1819V9.69389H6.528V33.1819H3.392ZM17.824 33.1819L10.08 22.7819H13.76L21.632 33.1819H17.824ZM5.344 24.7339V21.9499H11.616C12.5973 21.9499 13.44 21.7472 14.144 21.3419C14.848 20.9366 15.392 20.3819 15.776 19.6779C16.16 18.9526 16.352 18.1312 16.352 17.2139C16.352 16.2966 16.16 15.4859 15.776 14.7819C15.392 14.0566 14.848 13.4912 14.144 13.0859C13.44 12.6592 12.5973 12.4459 11.616 12.4459H5.344V9.69389H11.04C12.7467 9.69389 14.24 9.94989 15.52 10.4619C16.8 10.9739 17.792 11.7632 18.496 12.8299C19.2 13.8966 19.552 15.2726 19.552 16.9579V17.4699C19.552 19.1552 19.1893 20.5312 18.464 21.5979C17.76 22.6646 16.768 23.4539 15.488 23.9659C14.2293 24.4779 12.7467 24.7339 11.04 24.7339H5.344ZM34.0617 33.7579C32.5684 33.7579 31.2777 33.5019 30.1897 32.9899C29.1017 32.4779 28.2164 31.8059 27.5337 30.9739C26.8511 30.1206 26.3391 29.1712 25.9977 28.1259C25.6777 27.0806 25.5177 26.0139 25.5177 24.9259V24.3499C25.5177 23.2406 25.6777 22.1632 25.9977 21.1179C26.3391 20.0726 26.8511 19.1339 27.5337 18.3019C28.2164 17.4486 29.0804 16.7766 30.1257 16.2859C31.1924 15.7739 32.4404 15.5179 33.8697 15.5179C35.7257 15.5179 37.2511 15.9232 38.4457 16.7339C39.6617 17.5232 40.5577 18.5472 41.1337 19.8059C41.7311 21.0646 42.0297 22.4086 42.0297 23.8379V25.2139H26.8617V22.9099H39.7897L39.0857 24.1579C39.0857 22.9419 38.8937 21.8966 38.5097 21.0219C38.1257 20.1259 37.5497 19.4326 36.7817 18.9419C36.0137 18.4512 35.0431 18.2059 33.8697 18.2059C32.6537 18.2059 31.6404 18.4832 30.8297 19.0379C30.0404 19.5926 29.4431 20.3499 29.0377 21.3099C28.6537 22.2699 28.4617 23.3792 28.4617 24.6379C28.4617 25.8539 28.6537 26.9526 29.0377 27.9339C29.4431 28.8939 30.0617 29.6619 30.8937 30.2379C31.7257 30.7926 32.7817 31.0699 34.0617 31.0699C35.4057 31.0699 36.4937 30.7712 37.3257 30.1739C38.1791 29.5766 38.6911 28.8832 38.8617 28.0939H41.7417C41.5071 29.2672 41.0377 30.2806 40.3337 31.1339C39.6297 31.9872 38.7444 32.6379 37.6777 33.0859C36.6111 33.5339 35.4057 33.7579 34.0617 33.7579ZM55.4795 33.7579C54.0075 33.7579 52.7275 33.5019 51.6395 32.9899C50.5728 32.4779 49.6875 31.7952 48.9835 30.9419C48.2795 30.0672 47.7462 29.1072 47.3835 28.0619C47.0422 27.0166 46.8715 25.9712 46.8715 24.9259V24.3499C46.8715 23.2619 47.0422 22.1952 47.3835 21.1499C47.7462 20.1046 48.2795 19.1659 48.9835 18.3339C49.7088 17.4806 50.6048 16.7979 51.6715 16.2859C52.7382 15.7739 53.9862 15.5179 55.4155 15.5179C56.8448 15.5179 58.1248 15.7846 59.2555 16.3179C60.4075 16.8512 61.3248 17.6086 62.0075 18.5899C62.7115 19.5499 63.1062 20.6912 63.1915 22.0139H60.2475C60.0982 20.9472 59.6075 20.0619 58.7755 19.3579C57.9435 18.6326 56.8235 18.2699 55.4155 18.2699C54.1995 18.2699 53.1862 18.5472 52.3755 19.1019C51.5648 19.6566 50.9568 20.4139 50.5515 21.3739C50.1462 22.3339 49.9435 23.4219 49.9435 24.6379C49.9435 25.8112 50.1462 26.8886 50.5515 27.8699C50.9568 28.8299 51.5648 29.5979 52.3755 30.1739C53.2075 30.7286 54.2422 31.0059 55.4795 31.0059C56.4395 31.0059 57.2715 30.8352 57.9755 30.4939C58.6795 30.1526 59.2448 29.6939 59.6715 29.1179C60.0982 28.5419 60.3542 27.8912 60.4395 27.1659H63.3835C63.3195 28.5099 62.9248 29.6726 62.1995 30.6539C61.4955 31.6352 60.5568 32.4032 59.3835 32.9579C58.2315 33.4912 56.9302 33.7579 55.4795 33.7579ZM70.1497 33.1819V16.0939H73.2217V33.1819H70.1497ZM67.5257 18.5259V16.0939H73.2217V18.5259H67.5257ZM71.0137 13.3419C70.3311 13.3419 69.8191 13.1606 69.4777 12.7979C69.1577 12.4352 68.9977 11.9766 68.9977 11.4219C68.9977 10.8672 69.1577 10.4086 69.4777 10.0459C69.8191 9.68322 70.3311 9.50189 71.0137 9.50189C71.6964 9.50189 72.1977 9.68322 72.5177 10.0459C72.8591 10.4086 73.0297 10.8672 73.0297 11.4219C73.0297 11.9766 72.8591 12.4352 72.5177 12.7979C72.1977 13.1606 71.6964 13.3419 71.0137 13.3419ZM80.9215 39.5819V16.0939H83.3535V23.4859L82.7775 23.4219C82.8842 21.5872 83.2682 20.0939 83.9295 18.9419C84.6122 17.7686 85.4975 16.9046 86.5855 16.3499C87.6735 15.7952 88.8575 15.5179 90.1375 15.5179C91.3748 15.5179 92.4948 15.7526 93.4975 16.2219C94.5215 16.6912 95.3962 17.3312 96.1215 18.1419C96.8468 18.9526 97.4015 19.8912 97.7855 20.9579C98.1695 22.0246 98.3615 23.1552 98.3615 24.3499V24.9259C98.3615 26.1206 98.1588 27.2512 97.7535 28.3179C97.3482 29.3846 96.7722 30.3232 96.0255 31.1339C95.3002 31.9446 94.4255 32.5846 93.4015 33.0539C92.3988 33.5232 91.2895 33.7579 90.0735 33.7579C88.8575 33.7579 87.6948 33.4912 86.5855 32.9579C85.4762 32.4246 84.5588 31.5606 83.8335 30.3659C83.1082 29.1712 82.6922 27.6032 82.5855 25.6619L83.9935 28.2219V39.5819H80.9215ZM89.5935 31.0699C90.7455 31.0699 91.7482 30.8032 92.6015 30.2699C93.4548 29.7152 94.1162 28.9579 94.5855 27.9979C95.0548 27.0166 95.2895 25.8966 95.2895 24.6379C95.2895 23.3579 95.0548 22.2379 94.5855 21.2779C94.1162 20.3179 93.4548 19.5712 92.6015 19.0379C91.7482 18.4832 90.7455 18.2059 89.5935 18.2059C88.5695 18.2059 87.6202 18.4406 86.7455 18.9099C85.8708 19.3579 85.1668 20.0192 84.6335 20.8939C84.1215 21.7472 83.8655 22.7819 83.8655 23.9979V25.4699C83.8655 26.6432 84.1322 27.6459 84.6655 28.4779C85.1988 29.3099 85.9028 29.9499 86.7775 30.3979C87.6522 30.8459 88.5908 31.0699 89.5935 31.0699ZM103.279 39.8379V37.0859H105.743C106.469 37.0859 107.077 36.9899 107.567 36.7979C108.079 36.6272 108.495 36.3286 108.815 35.9019C109.157 35.4752 109.434 34.9099 109.647 34.2059L115.023 16.0939H118.031L112.335 35.0059C111.994 36.1366 111.514 37.0539 110.895 37.7579C110.277 38.4832 109.519 39.0059 108.623 39.3259C107.749 39.6672 106.725 39.8379 105.551 39.8379H103.279ZM108.495 32.7979V30.2379H112.207V32.7979H108.495ZM108.175 32.7979L102.063 16.0939H105.199L111.055 32.7979H108.175ZM121.865 33.1819V29.2779H125.577V33.1819H121.865Z" fill="#F7F6F6"/>
<circle cx="71.3939" cy="6.66667" r="6.66667" fill="#DC1727"/>
</svg>
