<svg width="375" height="536" viewBox="0 0 375 536" fill="none" xmlns="http://www.w3.org/2000/svg">
<g clip-path="url(#clip0_35_672)">
<g filter="url(#filter0_bd_35_672)">
<path d="M117.452 -37H-25V113.279C-25 113.279 16.31 130.651 26.875 113.279C33.3325 102.662 24.6537 100.194 26.875 81.4159C29.0964 62.6375 33.2821 66.4557 66.4854 81.4159C99.6887 96.376 63.095 45.6797 61.2161 27.549C58.6558 2.84217 105.961 35.9956 117.452 22.1623C132.185 4.4257 117.452 -37 117.452 -37Z" fill="url(#paint0_linear_35_672)" shape-rendering="crispEdges"/>
</g>
<g filter="url(#filter1_bd_35_672)">
<path d="M288.031 554.04L411.973 540.105L404.07 421.445C404.07 421.445 360.361 407.314 347.058 425.242C335.733 440.504 359.856 457.391 350.293 473.817C336.985 496.675 300.264 463.613 283.364 483.954C265.841 505.046 288.031 554.04 288.031 554.04Z" fill="url(#paint1_linear_35_672)" shape-rendering="crispEdges"/>
</g>
</g>
<defs>
<filter id="filter0_bd_35_672" x="-65" y="-77" width="229" height="238" filterUnits="userSpaceOnUse" color-interpolation-filters="sRGB">
<feFlood flood-opacity="0" result="BackgroundImageFix"/>
<feGaussianBlur in="BackgroundImageFix" stdDeviation="20"/>
<feComposite in2="SourceAlpha" operator="in" result="effect1_backgroundBlur_35_672"/>
<feColorMatrix in="SourceAlpha" type="matrix" values="0 0 0 0 0 0 0 0 0 0 0 0 0 0 0 0 0 0 127 0" result="hardAlpha"/>
<feOffset dy="9"/>
<feGaussianBlur stdDeviation="12"/>
<feComposite in2="hardAlpha" operator="out"/>
<feColorMatrix type="matrix" values="0 0 0 0 0 0 0 0 0 0 0 0 0 0 0 0 0 0 0.2 0"/>
<feBlend mode="normal" in2="effect1_backgroundBlur_35_672" result="effect2_dropShadow_35_672"/>
<feBlend mode="normal" in="SourceGraphic" in2="effect2_dropShadow_35_672" result="shape"/>
</filter>
<filter id="filter1_bd_35_672" x="196.626" y="336.154" width="295.347" height="297.886" filterUnits="userSpaceOnUse" color-interpolation-filters="sRGB">
<feFlood flood-opacity="0" result="BackgroundImageFix"/>
<feGaussianBlur in="BackgroundImageFix" stdDeviation="40"/>
<feComposite in2="SourceAlpha" operator="in" result="effect1_backgroundBlur_35_672"/>
<feColorMatrix in="SourceAlpha" type="matrix" values="0 0 0 0 0 0 0 0 0 0 0 0 0 0 0 0 0 0 127 0" result="hardAlpha"/>
<feOffset dy="9"/>
<feGaussianBlur stdDeviation="12"/>
<feComposite in2="hardAlpha" operator="out"/>
<feColorMatrix type="matrix" values="0 0 0 0 0 0 0 0 0 0 0 0 0 0 0 0 0 0 0.2 0"/>
<feBlend mode="normal" in2="effect1_backgroundBlur_35_672" result="effect2_dropShadow_35_672"/>
<feBlend mode="normal" in="SourceGraphic" in2="effect2_dropShadow_35_672" result="shape"/>
</filter>
<linearGradient id="paint0_linear_35_672" x1="8.28312" y1="-37" x2="49.9293" y2="120.887" gradientUnits="userSpaceOnUse">
<stop stop-color="#D9D9D9" stop-opacity="0.4"/>
<stop offset="1" stop-color="white" stop-opacity="0.1"/>
</linearGradient>
<linearGradient id="paint1_linear_35_672" x1="379.894" y1="523.557" x2="307.125" y2="443.573" gradientUnits="userSpaceOnUse">
<stop stop-color="white" stop-opacity="0.4"/>
<stop offset="1" stop-color="white" stop-opacity="0.1"/>
</linearGradient>
<clipPath id="clip0_35_672">
<rect width="375" height="536" fill="white"/>
</clipPath>
</defs>
</svg>
