<svg width="168" height="56" viewBox="0 0 168 56" fill="none" xmlns="http://www.w3.org/2000/svg">
<path d="M4.452 43.8636V13.0356H8.568V43.8636H4.452ZM23.394 43.8636L13.23 30.2136H18.06L28.392 43.8636H23.394ZM7.014 32.7756V29.1216H15.246C16.534 29.1216 17.64 28.8556 18.564 28.3236C19.488 27.7916 20.202 27.0636 20.706 26.1396C21.21 25.1876 21.462 24.1096 21.462 22.9056C21.462 21.7016 21.21 20.6376 20.706 19.7136C20.202 18.7616 19.488 18.0196 18.564 17.4876C17.64 16.9276 16.534 16.6476 15.246 16.6476H7.014V13.0356H14.49C16.73 13.0356 18.69 13.3716 20.37 14.0436C22.05 14.7156 23.352 15.7516 24.276 17.1516C25.2 18.5516 25.662 20.3576 25.662 22.5696V23.2416C25.662 25.4536 25.186 27.2596 24.234 28.6596C23.31 30.0596 22.008 31.0956 20.328 31.7676C18.676 32.4396 16.73 32.7756 14.49 32.7756H7.014ZM44.706 44.6196C42.746 44.6196 41.052 44.2836 39.624 43.6116C38.196 42.9396 37.034 42.0576 36.138 40.9656C35.242 39.8456 34.57 38.5996 34.122 37.2276C33.702 35.8556 33.492 34.4556 33.492 33.0276V32.2716C33.492 30.8156 33.702 29.4016 34.122 28.0296C34.57 26.6576 35.242 25.4256 36.138 24.3336C37.034 23.2136 38.168 22.3316 39.54 21.6876C40.94 21.0156 42.578 20.6796 44.454 20.6796C46.89 20.6796 48.892 21.2116 50.46 22.2756C52.056 23.3116 53.232 24.6556 53.988 26.3076C54.772 27.9596 55.164 29.7236 55.164 31.5996V33.4056H35.256V30.3816H52.224L51.3 32.0196C51.3 30.4236 51.048 29.0516 50.544 27.9036C50.04 26.7276 49.284 25.8176 48.276 25.1736C47.268 24.5296 45.994 24.2076 44.454 24.2076C42.858 24.2076 41.528 24.5716 40.464 25.2996C39.428 26.0276 38.644 27.0216 38.112 28.2816C37.608 29.5416 37.356 30.9976 37.356 32.6496C37.356 34.2456 37.608 35.6876 38.112 36.9756C38.644 38.2356 39.456 39.2436 40.548 39.9996C41.64 40.7276 43.026 41.0916 44.706 41.0916C46.47 41.0916 47.898 40.6996 48.99 39.9156C50.11 39.1316 50.782 38.2216 51.006 37.1856H54.786C54.478 38.7256 53.862 40.0556 52.938 41.1756C52.014 42.2956 50.852 43.1496 49.452 43.7376C48.052 44.3256 46.47 44.6196 44.706 44.6196ZM72.8168 44.6196C70.8848 44.6196 69.2048 44.2836 67.7768 43.6116C66.3768 42.9396 65.2148 42.0436 64.2908 40.9236C63.3668 39.7756 62.6668 38.5156 62.1908 37.1436C61.7428 35.7716 61.5188 34.3996 61.5188 33.0276V32.2716C61.5188 30.8436 61.7428 29.4436 62.1908 28.0716C62.6668 26.6996 63.3668 25.4676 64.2908 24.3756C65.2428 23.2556 66.4188 22.3596 67.8188 21.6876C69.2188 21.0156 70.8568 20.6796 72.7328 20.6796C74.6088 20.6796 76.2888 21.0296 77.7728 21.7296C79.2848 22.4296 80.4888 23.4236 81.3848 24.7116C82.3088 25.9716 82.8268 27.4696 82.9388 29.2056H79.0748C78.8788 27.8056 78.2348 26.6436 77.1428 25.7196C76.0508 24.7676 74.5808 24.2916 72.7328 24.2916C71.1368 24.2916 69.8068 24.6556 68.7428 25.3836C67.6788 26.1116 66.8808 27.1056 66.3488 28.3656C65.8168 29.6256 65.5508 31.0536 65.5508 32.6496C65.5508 34.1896 65.8168 35.6036 66.3488 36.8916C66.8808 38.1516 67.6788 39.1596 68.7428 39.9156C69.8348 40.6436 71.1928 41.0076 72.8168 41.0076C74.0768 41.0076 75.1688 40.7836 76.0928 40.3356C77.0168 39.8876 77.7588 39.2856 78.3188 38.5296C78.8788 37.7736 79.2148 36.9196 79.3268 35.9676H83.1908C83.1068 37.7316 82.5888 39.2576 81.6368 40.5456C80.7128 41.8336 79.4808 42.8416 77.9408 43.5696C76.4288 44.2696 74.7208 44.6196 72.8168 44.6196ZM92.0715 43.8636V21.4356H96.1035V43.8636H92.0715ZM88.6275 24.6276V21.4356H96.1035V24.6276H88.6275ZM93.2055 17.8236C92.3095 17.8236 91.6375 17.5856 91.1895 17.1096C90.7695 16.6336 90.5595 16.0316 90.5595 15.3036C90.5595 14.5756 90.7695 13.9736 91.1895 13.4976C91.6375 13.0216 92.3095 12.7836 93.2055 12.7836C94.1015 12.7836 94.7595 13.0216 95.1795 13.4976C95.6275 13.9736 95.8515 14.5756 95.8515 15.3036C95.8515 16.0316 95.6275 16.6336 95.1795 17.1096C94.7595 17.5856 94.1015 17.8236 93.2055 17.8236ZM106.209 52.2636V21.4356H109.401V31.1376L108.645 31.0536C108.785 28.6456 109.289 26.6856 110.157 25.1736C111.053 23.6336 112.215 22.4996 113.643 21.7716C115.071 21.0436 116.625 20.6796 118.305 20.6796C119.929 20.6796 121.399 20.9876 122.715 21.6036C124.059 22.2196 125.207 23.0596 126.159 24.1236C127.111 25.1876 127.839 26.4196 128.343 27.8196C128.847 29.2196 129.099 30.7036 129.099 32.2716V33.0276C129.099 34.5956 128.833 36.0796 128.301 37.4796C127.769 38.8796 127.013 40.1116 126.033 41.1756C125.081 42.2396 123.933 43.0796 122.589 43.6956C121.273 44.3116 119.817 44.6196 118.221 44.6196C116.625 44.6196 115.099 44.2696 113.643 43.5696C112.187 42.8696 110.983 41.7356 110.031 40.1676C109.079 38.5996 108.533 36.5416 108.393 33.9936L110.241 37.3536V52.2636H106.209ZM117.591 41.0916C119.103 41.0916 120.419 40.7416 121.539 40.0416C122.659 39.3136 123.527 38.3196 124.143 37.0596C124.759 35.7716 125.067 34.3016 125.067 32.6496C125.067 30.9696 124.759 29.4996 124.143 28.2396C123.527 26.9796 122.659 25.9996 121.539 25.2996C120.419 24.5716 119.103 24.2076 117.591 24.2076C116.247 24.2076 115.001 24.5156 113.853 25.1316C112.705 25.7196 111.781 26.5876 111.081 27.7356C110.409 28.8556 110.073 30.2136 110.073 31.8096V33.7416C110.073 35.2816 110.423 36.5976 111.123 37.6896C111.823 38.7816 112.747 39.6216 113.895 40.2096C115.043 40.7976 116.275 41.0916 117.591 41.0916ZM135.554 52.5996V48.9876H138.788C139.74 48.9876 140.538 48.8616 141.182 48.6096C141.854 48.3856 142.4 47.9936 142.82 47.4336C143.268 46.8736 143.632 46.1316 143.912 45.2076L150.968 21.4356H154.916L147.44 46.2576C146.992 47.7416 146.362 48.9456 145.55 49.8696C144.738 50.8216 143.744 51.5076 142.568 51.9276C141.42 52.3756 140.076 52.5996 138.536 52.5996H135.554ZM142.4 43.3596V39.9996H147.272V43.3596H142.4ZM141.98 43.3596L133.958 21.4356H138.074L145.76 43.3596H141.98ZM159.947 43.8636V38.7396H164.819V43.8636H159.947Z" fill="black"/>
<circle cx="93.7045" cy="8.75" r="8.75" fill="#DC1727"/>
</svg>
